<?xml version="1.0" encoding="UTF-8"?>
<svg id="Layer_2" data-name="Layer 2" xmlns="http://www.w3.org/2000/svg" xmlns:xlink="http://www.w3.org/1999/xlink" viewBox="0 0 896 896">
  <defs>
    <style>
      .cls-1 {
        letter-spacing: .02em;
      }

      .cls-2 {
        fill: #cd251f;
        filter: url(#drop-shadow-1);
      }

      .cls-2, .cls-3, .cls-4, .cls-5 {
        stroke-width: 0px;
      }

      .cls-3 {
        fill: #4c0c4b;
      }

      .cls-4 {
        fill: none;
      }

      .cls-6 {
        fill: #fff;
        font-family: Lato-Bold, Lato;
        font-size: 141px;
        font-weight: 700;
      }

      .cls-5 {
        fill: #cea465;
      }

      .cls-7 {
        letter-spacing: .02em;
      }

      .cls-8 {
        clip-path: url(#clippath);
      }

      .cls-9 {
        letter-spacing: -.05em;
      }
    </style>
    <clipPath id="clippath">
      <circle class="cls-4" cx="448" cy="448" r="448"/>
    </clipPath>
    <filter id="drop-shadow-1" filterUnits="userSpaceOnUse">
      <feOffset dx="7" dy="7"/>
      <feGaussianBlur result="blur" stdDeviation="5"/>
      <feFlood flood-color="#000" flood-opacity=".75"/>
      <feComposite in2="blur" operator="in"/>
      <feComposite in="SourceGraphic"/>
    </filter>
  </defs>
  <g id="Layer_1-2" data-name="Layer 1">
    <g>
      <circle class="cls-3" cx="448" cy="448" r="448"/>
      <g>
        <g>
          <g>
            <path class="cls-5" d="m429.72,334.04l18.03,10.43c.15.09.34.09.49,0l18.03-10.43c.17-.1.27-.3.24-.49l-12.29-86.15c-.05-.37-.22-.72-.48-.99l-5.57-5.84c-.1-.1-.25-.1-.35,0l-5.59,5.86c-.25.26-.41.59-.46.95l-12.3,86.17c-.03.2.07.39.24.49Z"/>
            <path class="cls-5" d="m447.93,138.73l-17.17,83c-.55,2.64.43,5.36,2.53,7.05l14.49,11.64c.13.1.31.1.43,0l14.49-11.61c2.11-1.69,3.09-4.41,2.54-7.06l-17.17-83.02c-.02-.08-.13-.08-.15,0Z"/>
          </g>
          <g>
            <path class="cls-5" d="m474.18,337.31l5.38,20.13c.05.17.18.3.35.35l20.13,5.38c.19.05.4-.02.52-.18l52.23-69.61c.23-.3.35-.66.36-1.04l.19-8.07c0-.14-.11-.25-.25-.25l-8.09.19c-.36,0-.71.13-1,.35l-69.63,52.24c-.16.12-.23.33-.18.52Z"/>
            <path class="cls-5" d="m625.15,212.07l-70.83,46.55c-2.25,1.48-3.49,4.1-3.19,6.78l2.02,18.48c.02.16.14.29.31.31l18.46,2.04c2.68.3,5.3-.94,6.79-3.19l46.56-70.85c.04-.07-.04-.15-.1-.1Z"/>
          </g>
          <g>
            <path class="cls-5" d="m503.3,371.05l-10.43,18.03c-.09.15-.09.34,0,.49l10.43,18.03c.1.17.3.27.49.24l86.15-12.29c.37-.05.72-.22.99-.48l5.84-5.57c.1-.1.1-.25,0-.35l-5.85-5.59c-.26-.25-.59-.41-.95-.46l-86.17-12.3c-.2-.03-.39.07-.49.24Z"/>
            <path class="cls-5" d="m698.61,389.26l-83-17.17c-2.64-.55-5.36.43-7.05,2.53l-11.64,14.49c-.1.13-.1.31,0,.43l11.61,14.49c1.69,2.11,4.41,3.09,7.06,2.54l83.02-17.17c.08-.02.08-.13,0-.15Z"/>
          </g>
          <g>
            <path class="cls-5" d="m500.03,415.51l-20.13,5.38c-.17.05-.3.18-.35.35l-5.38,20.13c-.05.19.02.4.18.52l69.61,52.23c.3.23.66.35,1.04.36l8.07.19c.14,0,.25-.11.25-.25l-.19-8.09c0-.36-.13-.71-.35-1l-52.24-69.63c-.12-.16-.33-.23-.52-.18Z"/>
            <path class="cls-5" d="m625.26,566.49l-46.55-70.83c-1.48-2.25-4.1-3.49-6.78-3.19l-18.48,2.02c-.16.02-.29.14-.31.31l-2.04,18.46c-.3,2.68.94,5.3,3.19,6.79l70.85,46.56c.07.04.15-.04.1-.1Z"/>
          </g>
          <g>
            <path class="cls-5" d="m466.28,444.63l-18.03-10.43c-.15-.09-.34-.09-.49,0l-18.03,10.43c-.17.1-.27.3-.24.49l12.29,86.15c.05.37.22.72.48.99l5.57,5.84c.1.1.25.1.35,0l5.59-5.85c.25-.26.41-.59.46-.95l12.3-86.17c.03-.2-.07-.39-.24-.49Z"/>
            <path class="cls-5" d="m448.07,639.94l17.17-83c.55-2.64-.43-5.36-2.53-7.05l-14.49-11.64c-.13-.1-.31-.1-.43,0l-14.49,11.61c-2.11,1.69-3.09,4.41-2.54,7.06l17.17,83.02c.02.08.13.08.15,0Z"/>
          </g>
          <g>
            <path class="cls-5" d="m421.82,441.36l-5.38-20.13c-.05-.17-.18-.3-.35-.35l-20.13-5.38c-.19-.05-.4.02-.52.18l-52.23,69.61c-.23.3-.35.66-.36,1.04l-.19,8.07c0,.14.11.25.25.25l8.09-.19c.36,0,.71-.13,1-.35l69.63-52.24c.16-.12.23-.33.18-.52Z"/>
            <path class="cls-5" d="m270.85,566.59l70.83-46.55c2.25-1.48,3.49-4.1,3.19-6.78l-2.02-18.48c-.02-.16-.14-.29-.31-.31l-18.46-2.04c-2.68-.3-5.3.94-6.79,3.19l-46.56,70.85c-.04.07.04.15.1.1Z"/>
          </g>
          <g>
            <path class="cls-5" d="m392.7,407.61l10.43-18.03c.09-.15.09-.34,0-.49l-10.43-18.03c-.1-.17-.3-.27-.49-.24l-86.15,12.29c-.37.05-.72.22-.99.48l-5.84,5.57c-.1.1-.1.25,0,.35l5.85,5.59c.26.25.59.41.95.46l86.17,12.3c.2.03.39-.07.49-.24Z"/>
            <path class="cls-5" d="m197.39,389.41l83,17.17c2.64.55,5.36-.43,7.05-2.53l11.64-14.49c.1-.13.1-.31,0-.43l-11.61-14.49c-1.69-2.11-4.41-3.09-7.06-2.54l-83.02,17.17c-.08.02-.08.13,0,.15Z"/>
          </g>
          <g>
            <path class="cls-5" d="m395.97,363.16l20.13-5.38c.17-.05.3-.18.35-.35l5.38-20.13c.05-.19-.02-.4-.18-.52l-69.61-52.23c-.3-.23-.66-.35-1.04-.36l-8.07-.19c-.14,0-.25.11-.25.25l.19,8.09c0,.36.13.71.35,1l52.24,69.63c.12.16.33.23.52.18Z"/>
            <path class="cls-5" d="m270.74,212.18l46.55,70.83c1.48,2.25,4.1,3.49,6.78,3.19l18.48-2.02c.16-.02.29-.14.31-.31l2.04-18.46c.3-2.68-.94-5.3-3.19-6.79l-70.85-46.56c-.07-.04-.15.04-.1.1Z"/>
          </g>
        </g>
        <g>
          <path class="cls-5" d="m425.74,335.04l-10.21-93.34c-.04-.32-.5-.33-.55,0l-6.56,50.9c-.02.17-.22.25-.36.14l-40.18-31.94c-.25-.2-.59.13-.39.38l57.71,74.08c.18.24.56.08.53-.21Z"/>
          <path class="cls-5" d="m387.12,157.67l-16.83,36.95c-.53,1.17-1.89,1.72-3.09,1.26l-37.82-14.78c-4.66-1.82-10.02,3.05-8.24,7.73l13.3,32.8c.49,1.2,1.27,2.26,2.29,3.07l62.82,50.27c.98.79,2.45.19,2.61-1.06l10.08-79.98c.15-1.19,0-2.39-.46-3.5l-13.36-32.94c-1.98-4.6-9.22-4.37-11.3.19Z"/>
        </g>
        <g>
          <path class="cls-5" d="m470.9,334.96l59.18-72.9c.21-.25-.12-.59-.38-.39l-40.8,31.13c-.14.1-.34.02-.35-.15l-5.54-51.03c-.04-.32-.5-.33-.54,0l-12.08,93.13c-.04.3.34.46.52.22Z"/>
          <path class="cls-5" d="m569.84,182.77l-38.11,14.01c-1.21.45-2.56-.13-3.07-1.32l-16.08-37.28c-1.98-4.6-9.22-4.98-11.29-.42l-13.97,32.53c-.51,1.19-.71,2.49-.57,3.78l8.44,80.02c.13,1.25,1.59,1.88,2.58,1.11l63.95-49.08c.95-.73,1.7-1.69,2.17-2.79l14.03-32.67c1.88-4.64-3.38-9.63-8.08-7.9Z"/>
        </g>
        <g>
          <path class="cls-5" d="m502.8,367.32l93.45-9.19c.32-.03.33-.5.01-.55l-50.82-7.12c-.17-.02-.25-.23-.14-.36l32.38-39.83c.21-.25-.12-.59-.38-.39l-74.7,56.9c-.24.18-.09.56.21.53Z"/>
          <path class="cls-5" d="m680.57,330.65l-36.76-17.24c-1.17-.55-1.7-1.91-1.22-3.11l15.2-37.65c1.87-4.64-2.94-10.05-7.64-8.32l-32.95,12.94c-1.21.47-2.27,1.25-3.09,2.25l-50.95,62.27c-.8.97-.22,2.45,1.03,2.62l79.86,10.95c1.19.16,2.39.02,3.51-.42l33.09-13c4.62-1.93,4.47-9.17-.07-11.3Z"/>
        </g>
        <g>
          <path class="cls-5" d="m502.47,412.22l72.25,59.98c.25.21.59-.11.4-.38l-30.68-41.14c-.1-.14-.02-.34.16-.35l51.09-4.99c.32-.03.33-.5.01-.54l-92.99-13.1c-.3-.04-.46.33-.23.52Z"/>
          <path class="cls-5" d="m653.56,512.81l-13.6-38.26c-.43-1.22.16-2.56,1.35-3.05l37.46-15.67c4.62-1.93,5.08-9.16.54-11.28l-32.37-14.32c-1.19-.52-2.49-.74-3.78-.61l-80.1,7.56c-1.25.12-1.89,1.56-1.14,2.57l48.38,64.48c.72.96,1.67,1.71,2.77,2.2l32.51,14.38c4.62,1.93,9.66-3.27,7.98-7.99Z"/>
        </g>
        <g>
          <path class="cls-5" d="m470.36,444.1l8.16,93.54c.03.32.5.34.55.02l7.67-50.74c.03-.17.23-.25.36-.14l39.47,32.81c.25.21.59-.11.4-.38l-56.08-75.32c-.18-.24-.56-.09-.53.2Z"/>
          <path class="cls-5" d="m505.09,622.27l17.64-36.57c.56-1.16,1.93-1.68,3.12-1.19l37.48,15.61c4.62,1.92,10.08-2.83,8.4-7.55l-12.58-33.09c-.46-1.21-1.22-2.28-2.22-3.12l-61.71-51.63c-.97-.81-2.44-.25-2.63,1l-11.82,79.74c-.18,1.18-.04,2.39.38,3.51l12.64,33.23c1.88,4.64,9.12,4.57,11.3.06Z"/>
        </g>
        <g>
          <path class="cls-5" d="m425.13,443.89l-60.76,71.59c-.21.25.11.59.37.4l41.47-30.23c.14-.1.34-.01.35.16l4.43,51.14c.03.32.5.34.54.02l14.12-92.84c.04-.29-.33-.46-.52-.24Z"/>
          <path class="cls-5" d="m322.89,593.87l38.41-13.18c1.22-.42,2.55.19,3.04,1.38l15.26,37.63c1.88,4.64,9.1,5.18,11.28.67l14.67-32.21c.54-1.18.76-2.48.66-3.77l-6.69-80.18c-.1-1.26-1.54-1.91-2.56-1.17l-65.01,47.67c-.97.71-1.73,1.65-2.23,2.74l-14.74,32.35c-1.98,4.6,3.17,9.7,7.9,8.07Z"/>
        </g>
        <g>
          <path class="cls-5" d="m392.82,412.05l-93.63,7.14c-.32.02-.34.49-.02.54l50.66,8.23c.17.03.24.23.13.36l-33.24,39.11c-.21.25.11.59.37.4l75.93-55.25c.24-.18.1-.56-.2-.53Z"/>
          <path class="cls-5" d="m331.93,436.25c.82-.96.27-2.44-.97-2.64l-79.6-12.7c-1.18-.19-2.39-.07-3.52.34l-33.36,12.27c-4.66,1.83-4.67,9.07-.18,11.3l36.38,18.04c1.16.57,1.66,1.95,1.15,3.13l-16.02,37.31c-1.98,4.6,2.72,10.11,7.46,8.49l33.22-12.22c1.22-.45,2.3-1.2,3.14-2.18l52.3-61.14"/>
        </g>
        <g>
          <path class="cls-5" d="m393.54,366.66l-70.92-61.54c-.25-.21-.59.1-.4.37l29.77,41.8c.1.14,0,.34-.16.35l-51.18,3.87c-.32.02-.34.49-.02.54l92.68,15.13c.29.05.47-.32.24-.52Z"/>
          <path class="cls-5" d="m244.68,262.78l12.76,38.55c.41,1.22-.22,2.55-1.42,3.02l-37.79,14.85c-4.66,1.83-5.28,9.05-.79,11.27l32.05,15.03c1.17.55,2.47.79,3.76.7l80.25-5.81c1.26-.09,1.93-1.52,1.19-2.55l-46.95-65.52c-.7-.97-1.63-1.75-2.72-2.26l-32.19-15.09c-4.58-2.03-9.73,3.06-8.16,7.82Z"/>
        </g>
      </g>
      <g class="cls-8">
        <rect class="cls-2" x="39.11" y="703.85" width="817.78" height="348.44"/>
      </g>
      <text class="cls-6" transform="translate(269.25 829.03)"><tspan class="cls-7" x="0" y="0">BE</tspan><tspan class="cls-9" x="178.22" y="0">T</tspan><tspan class="cls-1" x="254.57" y="0">A</tspan></text>
    </g>
  </g>
</svg>