<?xml version="1.0" encoding="UTF-8"?>
<svg id="Layer_2" data-name="Layer 2" xmlns="http://www.w3.org/2000/svg" viewBox="0 0 1024 1024">
  <defs>
    <style>
      .cls-1 {
        fill: #4c0c4b;
      }

      .cls-1, .cls-2 {
        stroke-width: 0px;
      }

      .cls-2 {
        fill: #cea465;
      }
    </style>
  </defs>
  <g id="Layer_1-2" data-name="Layer 1">
    <g>
      <rect class="cls-1" width="1024" height="1024"/>
      <g>
        <g>
          <g>
            <path class="cls-2" d="m489.25,443.18l22.44,12.98c.19.11.42.11.61,0l22.44-12.98c.22-.12.33-.37.3-.61l-15.3-107.22c-.07-.46-.27-.89-.6-1.23l-6.93-7.27c-.12-.12-.32-.12-.43,0l-6.95,7.29c-.31.32-.51.74-.57,1.18l-15.3,107.25c-.03.25.08.49.3.61Z"/>
            <path class="cls-2" d="m511.91,200.1l-21.37,103.3c-.68,3.28.54,6.67,3.15,8.77l18.04,14.49c.16.13.38.13.54,0l18.03-14.45c2.62-2.1,3.84-5.49,3.16-8.78l-21.38-103.33c-.02-.1-.16-.1-.18,0Z"/>
          </g>
          <g>
            <path class="cls-2" d="m544.58,447.25l6.69,25.05c.06.21.22.38.43.43l25.05,6.69c.24.06.5-.02.65-.22l65-86.64c.28-.37.44-.83.45-1.29l.24-10.04c0-.17-.14-.31-.31-.31l-10.07.24c-.45.01-.88.16-1.24.43l-86.66,65.02c-.2.15-.29.4-.22.65Z"/>
            <path class="cls-2" d="m732.48,291.39l-88.16,57.93c-2.8,1.84-4.34,5.1-3.97,8.43l2.51,23c.02.2.18.36.38.38l22.97,2.53c3.34.37,6.6-1.17,8.45-3.97l57.95-88.18c.06-.08-.04-.18-.13-.13Z"/>
          </g>
          <g>
            <path class="cls-2" d="m580.82,489.25l-12.98,22.44c-.11.19-.11.42,0,.61l12.98,22.44c.12.22.37.33.61.3l107.22-15.3c.46-.07.89-.27,1.23-.6l7.27-6.93c.12-.12.12-.32,0-.43l-7.29-6.95c-.32-.31-.74-.51-1.18-.57l-107.25-15.3c-.25-.03-.49.08-.61.3Z"/>
            <path class="cls-2" d="m823.9,511.91l-103.3-21.37c-3.28-.68-6.67.54-8.77,3.15l-14.49,18.04c-.13.16-.13.38,0,.54l14.45,18.03c2.1,2.62,5.49,3.84,8.78,3.16l103.33-21.38c.1-.02.1-.16,0-.18Z"/>
          </g>
          <g>
            <path class="cls-2" d="m576.75,544.58l-25.05,6.69c-.21.06-.38.22-.43.43l-6.69,25.05c-.06.24.02.5.22.65l86.64,65c.37.28.83.44,1.29.45l10.04.24c.17,0,.31-.14.31-.31l-.24-10.07c-.01-.45-.16-.88-.43-1.24l-65.02-86.66c-.15-.2-.4-.29-.65-.22Z"/>
            <path class="cls-2" d="m732.61,732.48l-57.93-88.16c-1.84-2.8-5.1-4.34-8.43-3.97l-23,2.51c-.2.02-.36.18-.38.38l-2.53,22.97c-.37,3.34,1.17,6.6,3.97,8.45l88.18,57.95c.08.06.18-.04.13-.13Z"/>
          </g>
          <g>
            <path class="cls-2" d="m534.75,580.82l-22.44-12.98c-.19-.11-.42-.11-.61,0l-22.44,12.98c-.22.12-.33.37-.3.61l15.3,107.22c.07.46.27.89.6,1.23l6.93,7.27c.12.12.32.12.43,0l6.95-7.29c.31-.32.51-.74.57-1.18l15.3-107.25c.03-.25-.08-.49-.3-.61Z"/>
            <path class="cls-2" d="m512.09,823.9l21.37-103.3c.68-3.28-.54-6.67-3.15-8.77l-18.04-14.49c-.16-.13-.38-.13-.54,0l-18.03,14.45c-2.62,2.1-3.84,5.49-3.16,8.78l21.37,103.33c.02.1.16.1.18,0Z"/>
          </g>
          <g>
            <path class="cls-2" d="m479.42,576.75l-6.69-25.05c-.06-.21-.22-.38-.43-.43l-25.05-6.69c-.24-.06-.5.02-.65.22l-65,86.64c-.28.37-.44.83-.45,1.29l-.24,10.04c0,.17.14.31.31.31l10.07-.24c.45-.01.88-.16,1.24-.43l86.66-65.02c.2-.15.29-.4.22-.65Z"/>
            <path class="cls-2" d="m291.52,732.61l88.16-57.93c2.8-1.84,4.34-5.1,3.97-8.43l-2.51-23c-.02-.2-.18-.36-.38-.38l-22.97-2.53c-3.34-.37-6.6,1.17-8.45,3.97l-57.95,88.18c-.06.08.04.18.13.13Z"/>
          </g>
          <g>
            <path class="cls-2" d="m443.18,534.75l12.98-22.44c.11-.19.11-.42,0-.61l-12.98-22.44c-.12-.22-.37-.33-.61-.3l-107.22,15.3c-.46.07-.89.27-1.23.6l-7.27,6.93c-.12.12-.12.32,0,.43l7.29,6.95c.32.31.74.51,1.18.57l107.25,15.3c.25.03.49-.08.61-.3Z"/>
            <path class="cls-2" d="m200.1,512.09l103.3,21.37c3.28.68,6.67-.54,8.77-3.15l14.49-18.04c.13-.16.13-.38,0-.54l-14.45-18.03c-2.1-2.62-5.49-3.84-8.78-3.16l-103.33,21.38c-.1.02-.1.16,0,.18Z"/>
          </g>
          <g>
            <path class="cls-2" d="m447.25,479.42l25.05-6.69c.21-.06.38-.22.43-.43l6.69-25.05c.06-.24-.02-.5-.22-.65l-86.64-65c-.37-.28-.83-.44-1.29-.45l-10.04-.24c-.17,0-.31.14-.31.31l.24,10.07c.01.45.16.88.43,1.24l65.02,86.66c.15.2.4.29.65.22Z"/>
            <path class="cls-2" d="m291.39,291.52l57.93,88.16c1.84,2.8,5.1,4.34,8.43,3.97l23-2.51c.2-.02.36-.18.38-.38l2.53-22.97c.37-3.34-1.17-6.6-3.97-8.45l-88.18-57.95c-.08-.06-.18.04-.13.13Z"/>
          </g>
        </g>
        <g>
          <path class="cls-2" d="m484.3,444.42l-12.71-116.17c-.04-.4-.63-.41-.68,0l-8.17,63.35c-.03.21-.28.31-.44.18l-50.01-39.76c-.32-.25-.73.16-.48.48l71.83,92.2c.23.29.7.1.66-.27Z"/>
          <path class="cls-2" d="m436.23,223.68l-20.95,45.99c-.67,1.46-2.36,2.15-3.85,1.56l-47.07-18.4c-5.81-2.27-12.47,3.8-10.25,9.62l16.56,40.83c.61,1.49,1.59,2.81,2.85,3.82l78.19,62.56c1.22.98,3.05.24,3.24-1.32l12.54-99.54c.19-1.48,0-2.98-.57-4.36l-16.63-41c-2.47-5.73-11.47-5.44-14.06.24Z"/>
        </g>
        <g>
          <path class="cls-2" d="m540.5,444.32l73.66-90.73c.26-.31-.15-.73-.47-.49l-50.78,38.74c-.17.13-.42.02-.44-.19l-6.9-63.51c-.04-.4-.63-.41-.68,0l-15.04,115.9c-.05.37.42.57.65.28Z"/>
          <path class="cls-2" d="m663.64,254.92l-47.43,17.44c-1.51.55-3.18-.17-3.82-1.64l-20.02-46.4c-2.47-5.72-11.47-6.19-14.05-.52l-17.38,40.48c-.64,1.48-.88,3.1-.71,4.71l10.5,99.59c.16,1.56,1.97,2.34,3.22,1.38l79.59-61.08c1.18-.91,2.11-2.1,2.7-3.47l17.46-40.66c2.34-5.78-4.2-11.98-10.05-9.83Z"/>
        </g>
        <g>
          <path class="cls-2" d="m580.2,484.61l116.3-11.43c.4-.04.41-.62.01-.68l-63.25-8.86c-.21-.03-.31-.28-.18-.45l40.3-49.57c.26-.31-.15-.73-.47-.49l-92.98,70.81c-.3.22-.11.7.26.66Z"/>
          <path class="cls-2" d="m801.45,438.96l-45.75-21.45c-1.45-.68-2.12-2.38-1.52-3.87l18.91-46.86c2.33-5.78-3.66-12.51-9.51-10.36l-41.01,16.11c-1.5.59-2.83,1.56-3.85,2.8l-63.41,77.5c-.99,1.21-.27,3.05,1.28,3.26l99.4,13.63c1.48.2,2.98.02,4.37-.52l41.18-16.18c5.75-2.4,5.56-11.41-.08-14.06Z"/>
        </g>
        <g>
          <path class="cls-2" d="m579.79,540.48l89.92,74.65c.31.26.73-.14.49-.47l-38.18-51.2c-.13-.17-.02-.42.19-.44l63.58-6.21c.4-.04.41-.62.01-.68l-115.73-16.3c-.37-.05-.57.41-.29.65Z"/>
          <path class="cls-2" d="m767.83,665.68l-16.92-47.62c-.54-1.51.2-3.18,1.68-3.8l46.62-19.51c5.75-2.41,6.32-11.4.67-14.04l-40.29-17.82c-1.48-.65-3.09-.92-4.7-.76l-99.69,9.41c-1.56.15-2.36,1.95-1.42,3.2l60.21,80.25c.89,1.19,2.08,2.13,3.44,2.74l40.46,17.9c5.75,2.4,12.02-4.07,9.94-9.95Z"/>
        </g>
        <g>
          <path class="cls-2" d="m539.83,580.17l10.16,116.42c.04.4.62.42.68.02l9.55-63.15c.03-.21.28-.31.45-.17l49.13,40.84c.31.26.73-.14.49-.47l-69.79-93.74c-.22-.3-.69-.12-.66.25Z"/>
          <path class="cls-2" d="m583.06,801.91l21.95-45.52c.7-1.45,2.4-2.09,3.88-1.48l46.65,19.42c5.75,2.4,12.55-3.52,10.46-9.4l-15.66-41.18c-.57-1.51-1.52-2.84-2.76-3.88l-76.8-64.26c-1.2-1.01-3.04-.31-3.27,1.24l-14.72,99.24c-.22,1.47-.06,2.98.47,4.37l15.73,41.35c2.34,5.78,11.35,5.69,14.06.07Z"/>
        </g>
        <g>
          <path class="cls-2" d="m483.54,579.89l-75.62,89.09c-.26.31.13.74.46.5l51.62-37.62c.17-.13.42-.02.44.2l5.51,63.65c.03.4.62.42.68.02l17.57-115.54c.06-.37-.4-.58-.65-.29Z"/>
          <path class="cls-2" d="m356.29,766.56l47.8-16.4c1.52-.52,3.18.24,3.78,1.72l19,46.83c2.34,5.78,11.33,6.44,14.04.83l18.26-40.09c.67-1.47.95-3.08.82-4.69l-8.32-99.79c-.13-1.56-1.92-2.38-3.19-1.45l-80.91,59.33c-1.2.88-2.16,2.06-2.77,3.41l-18.34,40.26c-2.46,5.73,3.94,12.07,9.84,10.05Z"/>
        </g>
        <g>
          <path class="cls-2" d="m443.33,540.27l-116.52,8.89c-.4.03-.43.61-.03.68l63.04,10.24c.21.03.3.29.17.45l-41.38,48.68c-.26.31.13.74.46.5l94.5-68.76c.3-.22.12-.69-.24-.67Z"/>
          <path class="cls-2" d="m367.54,570.39c1.02-1.19.34-3.04-1.21-3.29l-99.07-15.8c-1.47-.23-2.98-.09-4.38.43l-41.52,15.28c-5.8,2.28-5.81,11.29-.22,14.06l45.27,22.45c1.44.71,2.07,2.43,1.44,3.9l-19.93,46.44c-2.46,5.73,3.39,12.59,9.28,10.56l41.35-15.21c1.51-.56,2.86-1.49,3.91-2.72l65.09-76.09"/>
        </g>
        <g>
          <path class="cls-2" d="m444.22,483.78l-88.26-76.59c-.31-.27-.74.13-.5.46l37.05,52.02c.12.17.01.42-.2.43l-63.7,4.81c-.4.03-.43.61-.03.68l115.35,18.83c.37.06.58-.4.3-.64Z"/>
          <path class="cls-2" d="m258.96,354.49l15.88,47.98c.5,1.52-.27,3.18-1.76,3.76l-47.03,18.48c-5.8,2.28-6.57,11.26-.98,14.03l39.89,18.7c1.46.68,3.07.98,4.68.87l99.88-7.23c1.56-.11,2.4-1.9,1.49-3.17l-58.44-81.55c-.87-1.21-2.03-2.18-3.38-2.81l-40.06-18.78c-5.7-2.52-12.11,3.81-10.15,9.73Z"/>
        </g>
      </g>
    </g>
  </g>
</svg>