<?xml version="1.0" encoding="UTF-8"?>
<svg id="Layer_2" data-name="Layer 2" xmlns="http://www.w3.org/2000/svg" viewBox="0 0 18.04 18.04">
  <defs>
    <style>
      .cls-1 {
        fill: #6d6c6d;
        stroke-width: 0px;
      }
    </style>
  </defs>
  <g id="Layer_1-2" data-name="Layer 1">
    <path class="cls-1" d="m17.92,4.73c-.1-.13-.25-.2-.42-.2H4.34c-.11-.44-.3-1.19-.48-1.93C3.47,1.07,2.1,0,.53,0,.24,0,0,.24,0,.53s.24.53.53.53c1.09,0,2.04.74,2.3,1.8l1.91,7.62c.15.58.48,1.07.94,1.41-.91.86-.7,2.44.37,3.05-.95,1.25-.03,3.12,1.56,3.1,1.43.02,2.4-1.57,1.73-2.83h2.77c-.67,1.26.3,2.85,1.73,2.83,2.57-.1,2.57-3.79,0-3.89h-6.79c-1.17-.04-1.17-1.73,0-1.77h7.23c1.15,0,2.15-.78,2.43-1.9l1.32-5.29c.04-.16,0-.33-.1-.45h0Zm-4.1,10.48c.49,0,.89.4.89.89-.04,1.17-1.73,1.17-1.77,0,0-.49.4-.89.89-.89Zm-6.23,0c.49,0,.89.4.89.89-.04,1.17-1.73,1.17-1.77,0,0-.49.4-.89.89-.89Zm8.07-4.99c-.16.65-.74,1.1-1.41,1.1h-7.09c-.67,0-1.25-.45-1.41-1.1l-1.16-4.63h12.23l-1.16,4.63Z"/>
  </g>
</svg>