<?xml version="1.0" encoding="UTF-8"?>
<svg id="Layer_2" data-name="Layer 2" xmlns="http://www.w3.org/2000/svg" viewBox="0 0 17.05 15.85">
  <defs>
    <style>
      .cls-1 {
        fill: #4c0c4b;
        stroke: #4c0c4b;
        stroke-miterlimit: 10;
        stroke-width: .14px;
      }
    </style>
  </defs>
  <g id="Layer_1-2" data-name="Layer 1">
    <path class="cls-1" d="m10.71,10.69c.42.02.79.03,1.16.07,2.46.28,4.54,2.15,5.1,4.57.07.31-.01.41-.33.41-4.52.01-9.04.02-13.56.03-.89,0-1.77,0-2.66,0-.29,0-.37-.1-.31-.38.51-2.36,2.48-4.23,4.87-4.6.39-.06.78-.06,1.17-.09.07,0,.14,0,.21,0,.05-.12.03-.19-.07-.25-.87-.54-1.3-1.35-1.43-2.35-.02-.2-.08-.31-.27-.4-.46-.21-.84-.53-1.08-.99-.28-.54-.31-1.13-.08-1.67.3-.7.49-1.43.7-2.16.3-1.04,1.02-1.75,1.97-2.25,1.83-.97,4.23-.68,5.71.69.61.56.96,1.26,1.14,2.07.09.38.22.76.36,1.13.19.47.33.93.28,1.44-.07.64-.39,1.12-.9,1.49-.12.09-.24.18-.38.24-.18.07-.23.19-.26.38-.11.91-.47,1.67-1.21,2.24-.08.06-.07.23-.1.37Zm.75-2.3c-.42.27-.87.4-1.36.43-.04,0-.09.07-.11.12-.09.21-.23.36-.44.43-.35.13-.74-.03-.91-.37-.16-.32-.06-.73.24-.93.31-.21.72-.15.97.12.05.05.12.12.19.12.72.05,1.42-.41,1.66-1.08.06-.17.13-.34.23-.48.35-.54.37-1.11.18-1.7-.04-.13-.09-.16-.23-.14-1.12.13-2.22.04-3.26-.45-.31-.14-.6-.34-.91-.51-.26.31-.59.54-.98.69-.56.21-1.14.24-1.73.17-.08-.01-.14-.03-.18.07-.22.58-.31,1.16.03,1.71.28.47.42.96.49,1.49.14,1.12.73,1.93,1.85,2.24,1.05.28,2.1.22,3.09-.24.69-.33,1.04-.94,1.21-1.68Zm-5.1,2.82c-1.48-.07-2.79.32-3.93,1.25-.9.74-1.5,1.68-1.81,2.81h7.66c0-.07,0-.11,0-.16,0-.71,0-1.43,0-2.14,0-.13-.03-.18-.17-.2-.52-.07-.98-.27-1.41-.57-.24-.17-.35-.39-.35-.67,0-.1,0-.2,0-.32Zm4.37.01c0,.08,0,.16,0,.23.02.34-.13.59-.42.78-.42.27-.87.48-1.37.54-.15.02-.18.08-.18.22,0,.7,0,1.39,0,2.09,0,.06,0,.11,0,.17h7.64c-.58-2.34-2.93-4.24-5.68-4.03Zm1.04-6.78c0-.11,0-.2,0-.29-.04-.95-.42-1.71-1.28-2.16-1.14-.61-2.33-.66-3.55-.26-1.19.4-1.79,1.19-1.87,2.42,0,.13.02.2.16.19.17,0,.33.01.5,0,.71-.04,1.32-.28,1.74-.9.1-.15.25-.16.4-.03,1.13.97,2.46,1.16,3.89,1.03Zm.57,2.65c.31-.23.57-.52.68-.92.13-.48.04-.94-.17-1.38-.2-.43-.34-.88-.43-1.34-.14-.75-.49-1.4-1.1-1.87-1.5-1.14-3.13-1.36-4.86-.59-1.1.49-1.83,1.32-2.03,2.54-.08.46-.22.89-.43,1.3-.21.41-.31.85-.21,1.32.09.4.47.87.78.96-.08-.13-.16-.26-.22-.39-.36-.75-.26-1.48.08-2.2.11-.23.16-.46.19-.71.11-.97.56-1.75,1.42-2.22,1.52-.83,3.09-.84,4.64-.07.89.44,1.39,1.2,1.53,2.19.05.33.13.64.26.94.22.5.32,1.02.19,1.55-.07.3-.21.59-.32.88Zm-2.1,3.55c-.55.22-1.11.35-1.68.32-.57-.02-1.14-.09-1.71-.14,0,.21,0,.45,0,.68,0,.13.05.22.16.3,1.01.71,2.11.65,3.1-.04.06-.04.12-.13.12-.19.01-.3,0-.6,0-.93Z"/>
  </g>
</svg>