<?xml version="1.0" encoding="UTF-8"?>
<svg id="Layer_2" data-name="Layer 2" xmlns="http://www.w3.org/2000/svg" viewBox="0 0 17.47 19.26">
  <defs>
    <style>
      .cls-1 {
        fill: #7e3080;
        stroke-width: 0px;
      }
    </style>
  </defs>
  <g id="Layer_1-2" data-name="Layer 1">
    <g>
      <path class="cls-1" d="m5.15,4.03c-.32,0-.58-.3-.58-.67V.67c0-.37.26-.67.58-.67s.58.3.58.67v2.69c0,.37-.26.67-.58.67Z"/>
      <path class="cls-1" d="m12.32,4.03c-.32,0-.58-.3-.58-.67V.67c0-.37.26-.67.58-.67s.58.3.58.67v2.69c0,.37-.26.67-.58.67Z"/>
      <path class="cls-1" d="m5.6,11.87c-.12,0-.23-.03-.34-.07-.12-.04-.21-.11-.3-.19-.16-.17-.26-.39-.26-.64,0-.12.03-.23.07-.34s.11-.21.19-.3c.09-.08.18-.14.3-.19.32-.13.73-.06.98.19.16.17.26.4.26.64,0,.05,0,.12-.02.18,0,.05-.03.11-.05.16-.02.05-.04.11-.08.16-.03.04-.07.09-.11.13-.17.16-.4.26-.64.26h0Z"/>
      <path class="cls-1" d="m8.74,11.87c-.12,0-.23-.03-.34-.07-.12-.04-.21-.11-.3-.19-.16-.17-.26-.39-.26-.64,0-.12.03-.23.07-.34s.11-.21.19-.3c.09-.08.18-.14.3-.19.32-.14.73-.06.98.19.16.17.26.4.26.64,0,.05,0,.12-.02.18,0,.05-.03.11-.05.16-.02.05-.04.11-.08.16-.03.04-.07.09-.11.13-.17.16-.4.26-.64.26h0Z"/>
      <path class="cls-1" d="m11.87,11.87c-.12,0-.23-.03-.34-.07-.12-.04-.21-.11-.3-.19-.04-.04-.07-.09-.11-.13-.04-.05-.06-.11-.08-.16-.03-.05-.04-.11-.05-.16,0-.06-.02-.13-.02-.18,0-.23.1-.47.26-.64.09-.08.18-.14.3-.19.33-.14.73-.06.98.19.16.17.26.4.26.64,0,.05,0,.12-.02.18,0,.05-.03.11-.05.16-.02.05-.04.11-.08.16-.03.04-.07.09-.11.13-.17.16-.4.26-.64.26h0Z"/>
      <path class="cls-1" d="m5.6,15.01c-.12,0-.23-.03-.34-.07s-.21-.11-.3-.19c-.16-.17-.26-.4-.26-.64,0-.12.03-.23.07-.34.04-.12.11-.21.19-.3.33-.33.94-.33,1.27,0,.16.17.26.4.26.64s-.1.47-.26.64c-.17.16-.4.26-.64.26Z"/>
      <path class="cls-1" d="m8.74,15.01c-.23,0-.47-.1-.64-.26-.16-.17-.26-.4-.26-.64,0-.12.03-.23.07-.34.04-.12.11-.21.19-.3.33-.33.94-.33,1.27,0,.08.08.14.18.19.3.04.11.07.22.07.34,0,.23-.1.47-.26.64-.17.16-.4.26-.64.26Z"/>
      <path class="cls-1" d="m11.87,15.01c-.23,0-.47-.1-.64-.26-.08-.08-.14-.18-.19-.3-.04-.11-.07-.22-.07-.34s.03-.23.07-.34c.04-.12.11-.22.19-.3.21-.21.52-.3.81-.24.06,0,.12.03.17.05.05.02.11.04.16.08.04.03.09.07.13.11.16.17.26.4.26.64s-.1.47-.26.64c-.17.16-.4.26-.64.26h0Z"/>
      <path class="cls-1" d="m16.35,7.52H1.12c-.37,0-.67-.22-.67-.49s.3-.49.67-.49h15.23c.37,0,.67.22.67.49s-.3.49-.67.49Z"/>
      <path class="cls-1" d="m12.32,1.34h-7.17C1.88,1.34,0,3.23,0,6.5v7.62c0,3.27,1.88,5.15,5.15,5.15h7.17c3.27,0,5.15-1.88,5.15-5.15v-7.62c0-3.27-1.88-5.15-5.15-5.15Zm4.05,12.89c0,2.65-1.29,3.93-3.93,3.93h-7.41c-2.65,0-3.93-1.29-3.93-3.93v-7.87c0-2.65,1.29-3.93,3.93-3.93h7.41c2.65,0,3.93,1.29,3.93,3.93v7.87Z"/>
    </g>
  </g>
</svg>