<?xml version="1.0" encoding="UTF-8"?>
<svg id="Layer_2" data-name="Layer 2" xmlns="http://www.w3.org/2000/svg" viewBox="0 0 14.25 16.54">
  <defs>
    <style>
      .cls-1 {
        fill: none;
        stroke: #6d6c6d;
        stroke-miterlimit: 10;
      }
    </style>
  </defs>
  <g id="Layer_1-2" data-name="Layer 1">
    <path class="cls-1" d="m13.58,14.81l-.59.77c-.2.27-.51.43-.85.45-.75.05-2.37-.15-4.57-1.42-3.15-1.82-5.5-4.76-6.56-8.24C.29,4,.48,2.43.69,1.71c.09-.32.32-.59.63-.73l.88-.41c.37-.17.81-.04,1.02.3l2.21,3.5c.24.38.13.88-.25,1.11l-.98.62c-.12.08-.18.22-.14.36.01.04.03.09.04.15.64,2.12,2.07,3.92,4,5.01.05.03.1.05.14.08.12.07.28.04.38-.06l.82-.82c.32-.32.83.92,1.14,1.23l2.92,1.69c.29.29.32.74.07,1.06Z"/>
  </g>
</svg>