<?xml version="1.0" encoding="UTF-8"?>
<svg id="Layer_2" data-name="Layer 2" xmlns="http://www.w3.org/2000/svg" viewBox="0 0 17.75 17.75">
  <defs>
    <style>
      .cls-1 {
        fill: #6d6c6d;
        stroke-width: 0px;
      }
    </style>
  </defs>
  <g id="Layer_1-2" data-name="Layer 1">
    <g id="_7" data-name="7">
      <path class="cls-1" d="m11.72,8.58l-2.29,2.29v-5.87c0-.31-.25-.55-.55-.55s-.55.25-.55.55v5.87l-2.29-2.29c-.22-.22-.57-.22-.78,0-.22.22-.22.57,0,.78l3.14,3.14c.13.13.32.17.49.14.17.03.35-.01.49-.14l3.14-3.14c.22-.22.22-.57,0-.78-.22-.22-.57-.22-.79,0ZM8.88,0C3.97,0,0,3.97,0,8.88s3.97,8.88,8.88,8.88,8.88-3.97,8.88-8.88S13.78,0,8.88,0Zm0,16.64c-4.29,0-7.77-3.48-7.77-7.77S4.59,1.11,8.88,1.11s7.77,3.48,7.77,7.77-3.48,7.77-7.77,7.77Z"/>
    </g>
  </g>
</svg>