<?xml version="1.0" encoding="UTF-8"?>
<svg id="Layer_2" data-name="Layer 2" xmlns="http://www.w3.org/2000/svg" viewBox="0 0 21.52 12.96">
  <defs>
    <style>
      .cls-1 {
        fill: #6d6c6d;
      }

      .cls-1, .cls-2 {
        stroke: #6d6c6d;
        stroke-miterlimit: 10;
        stroke-width: .28px;
      }

      .cls-2, .cls-3 {
        fill: #fff;
      }

      .cls-3 {
        stroke-width: 0px;
      }
    </style>
  </defs>
  <g id="Layer_1-2" data-name="Layer 1">
    <g>
      <g>
        <path class="cls-1" d="m9.11,6.19s0,0,0,0c0,0,0,0,0,0l5.92,6.55s.11.08.18.08.13-.03.18-.08l5.92-6.55s0,0,0,0c0,0,0,0,0,0,.08-.09.08-.22,0-.31,0,0,0,0,0,0l-1.93-2.41c-.05-.06-.11-.09-.19-.09h-7.99c-.07,0-.14.03-.19.09l-1.93,2.41s0,0,0,0c-.07.09-.07.22,0,.31Z"/>
        <polygon class="cls-2" points="13.91 3.87 16.52 3.87 17.68 5.79 12.75 5.79 13.91 3.87"/>
        <polygon class="cls-2" points="12.69 6.27 17.73 6.27 15.21 11.98 12.69 6.27"/>
        <polygon class="cls-2" points="18.26 6.27 20.59 6.27 16.04 11.31 18.26 6.27"/>
        <polygon class="cls-2" points="12.17 6.27 14.39 11.31 9.83 6.27 12.17 6.27"/>
        <polygon class="cls-2" points="20.63 5.79 18.24 5.79 17.08 3.87 19.09 3.87 20.63 5.79"/>
        <polygon class="cls-3" points="11.33 3.87 13.34 3.87 12.19 5.79 9.79 5.79 11.33 3.87"/>
      </g>
      <path class="cls-1" d="m.22,3.59s0,0,0,0c0,0,0,0,0,0l7.28,8.05c.05.06.14.1.22.1s.16-.04.22-.1L15.23,3.6s0,0,0,0c0,0,0,0,0,0,.09-.11.1-.27.01-.38,0,0,0,0,0,0L12.87.25c-.06-.07-.14-.11-.23-.11H2.81c-.09,0-.18.04-.23.11L.21,3.21s0,0,0,0c-.09.11-.08.27.01.38Z"/>
      <polygon class="cls-2" points="6.11 .73 9.33 .73 10.75 3.1 4.69 3.1 6.11 .73"/>
      <polygon class="cls-2" points="4.62 3.7 10.82 3.7 7.72 10.72 4.62 3.7"/>
      <polygon class="cls-2" points="11.47 3.7 14.34 3.7 8.73 9.89 11.47 3.7"/>
      <polygon class="cls-2" points="3.98 3.7 6.71 9.89 1.1 3.7 3.98 3.7"/>
      <polygon class="cls-2" points="14.39 3.1 11.44 3.1 10.02 .73 12.49 .73 14.39 3.1"/>
      <polygon class="cls-2" points="2.95 .73 5.42 .73 4 3.1 1.05 3.1 2.95 .73"/>
    </g>
  </g>
</svg>