<?xml version="1.0" encoding="UTF-8"?>
<svg id="Layer_2" data-name="Layer 2" xmlns="http://www.w3.org/2000/svg" viewBox="0 0 18.57 18.57">
  <defs>
    <style>
      .cls-1 {
        fill: #6d6c6d;
        stroke-width: 0px;
      }
    </style>
  </defs>
  <g id="Layer_1-2" data-name="Layer 1">
    <g>
      <g>
        <path class="cls-1" d="m7.06,1.25C3.85,1.25,1.25,3.85,1.25,7.06s2.6,5.82,5.82,5.82,5.82-2.6,5.82-5.82c0-3.21-2.61-5.81-5.82-5.82Zm0,11.02c-2.87,0-5.21-2.33-5.21-5.21S4.19,1.86,7.06,1.86s5.21,2.33,5.21,5.21c0,2.87-2.33,5.2-5.21,5.21Z"/>
        <path class="cls-1" d="m18.11,15.94l-3.9-3.9c-.12-.11-.31-.11-.43,0l-.22.22-.91-.91c2.37-3.09,1.79-7.52-1.3-9.89C8.26-.91,3.83-.33,1.46,2.76-.91,5.85-.33,10.28,2.76,12.65c2.53,1.94,6.06,1.94,8.59,0l.91.91-.22.22c-.12.12-.12.31,0,.43l3.9,3.9c.59.61,1.56.62,2.16.03.61-.59.62-1.56.03-2.16,0,0-.02-.02-.03-.03ZM.63,7.06C.63,3.51,3.51.63,7.06.63s6.43,2.88,6.43,6.43-2.88,6.43-6.43,6.43c-3.55,0-6.43-2.88-6.43-6.43Zm11.62,4.76l.87.87-.43.43-.87-.87c.15-.14.3-.28.43-.43Zm5.42,5.85c-.36.36-.94.36-1.3,0l-3.68-3.68,1.3-1.3,3.68,3.68c.36.36.36.94,0,1.3h0Z"/>
      </g>
      <path class="cls-1" d="m5.2,3.86h4.3c-.25.4-.4.61-.43.63h-1.15c.16.18.27.41.32.67h1.22s.02,0,.02.02c-.27.41-.41.62-.42.62h-.8c-.02.21-.12.47-.3.76-.24.3-.48.5-.7.59-.42.2-.82.3-1.2.3h0s.86,1.06,2.59,3.08h-1.14c-1.68-1.96-2.52-2.94-2.52-2.95v-.62c.16.02.33.03.53.03.94,0,1.53-.31,1.76-.92.04-.09.05-.18.05-.28h-2.56s-.02,0-.02-.02c.28-.41.43-.62.43-.62h2.03c-.12-.24-.34-.43-.67-.56-.24-.08-.45-.12-.64-.12h-1.13v-.02c.27-.41.42-.61.42-.61Z"/>
    </g>
  </g>
</svg>