<?xml version="1.0" encoding="UTF-8"?>
<svg id="Layer_2" data-name="Layer 2" xmlns="http://www.w3.org/2000/svg" viewBox="0 0 15.47 17.78">
  <defs>
    <style>
      .cls-1 {
        fill: #6d6c6d;
        stroke-width: 0px;
      }
    </style>
  </defs>
  <g id="Layer_1-2" data-name="Layer 1">
    <path class="cls-1" d="m12.56,11.96c-.85,0-1.62.37-2.15.95l-4.79-2.97c.13-.33.2-.68.2-1.06s-.07-.73-.2-1.06l4.79-2.97c.53.59,1.3.95,2.15.95,1.6,0,2.91-1.31,2.91-2.91s-1.31-2.91-2.91-2.91-2.91,1.31-2.91,2.91c0,.37.07.73.2,1.06l-4.79,2.97c-.53-.59-1.3-.95-2.15-.95-1.6,0-2.91,1.31-2.91,2.91s1.31,2.91,2.91,2.91c.85,0,1.62-.37,2.15-.95l4.79,2.97c-.13.33-.2.68-.2,1.06,0,1.6,1.31,2.91,2.91,2.91s2.91-1.31,2.91-2.91-1.31-2.91-2.91-2.91Zm-1.85-9.05c0-1.02.83-1.85,1.85-1.85s1.85.83,1.85,1.85-.83,1.85-1.85,1.85-1.85-.83-1.85-1.85Zm-7.81,7.83c-1.02,0-1.85-.83-1.85-1.85s.83-1.85,1.85-1.85,1.85.83,1.85,1.85-.83,1.85-1.85,1.85Zm7.81,4.13c0-1.02.83-1.85,1.85-1.85s1.85.83,1.85,1.85-.83,1.85-1.85,1.85-1.85-.83-1.85-1.85Z"/>
  </g>
</svg>