<?xml version="1.0" encoding="UTF-8"?>
<svg id="Layer_2" data-name="Layer 2" xmlns="http://www.w3.org/2000/svg" xmlns:xlink="http://www.w3.org/1999/xlink" viewBox="0 0 30.7 17.92">
  <defs>
    <style>
      .cls-1 {
        fill: #130080;
      }

      .cls-1, .cls-2, .cls-3, .cls-4, .cls-5 {
        stroke-width: 0px;
      }

      .cls-2 {
        fill: #080;
      }

      .cls-3 {
        fill: none;
      }

      .cls-4 {
        fill: #ff9433;
      }

      .cls-5 {
        fill: #fff;
      }

      .cls-6 {
        clip-path: url(#clippath);
      }
    </style>
    <clipPath id="clippath">
      <rect class="cls-3" x="4.05" y=".46" width="22.59" height="17" rx="2.62" ry="2.62"/>
    </clipPath>
  </defs>
  <g id="Layer_1-2" data-name="Layer 1">
    <g class="cls-6">
      <g>
        <g>
          <rect class="cls-4" width="30.7" height="5.97"/>
          <rect class="cls-2" x="0" y="11.95" width="30.7" height="5.97"/>
          <rect class="cls-5" x="0" y="5.97" width="30.7" height="5.98"/>
        </g>
        <g>
          <path class="cls-1" d="m15.35,6.28c-1.48,0-2.69,1.2-2.69,2.68s1.2,2.69,2.69,2.69,2.69-1.2,2.69-2.69c0-1.48-1.2-2.68-2.69-2.68m0,.26l-.07,1.35.07.77.07-.77-.07-1.35c.07,0,.14,0,.21.01,0,0,0,0,0,0,0,.06.05.12.11.12.06,0,.1-.05.11-.1.07.01.13.02.2.05l-.41,1.29-.13.76.27-.73.29-1.32c.06.02.13.04.19.06,0,.01,0,.02,0,.04,0,.06.05.11.11.11.04,0,.09-.03.1-.07.06.03.12.06.18.1l-.73,1.13-.33.71.45-.63.62-1.2c.06.03.11.07.17.1-.02.02-.03.04-.03.07,0,.06.05.11.11.11.04,0,.07-.01.09-.05.05.05.1.09.15.14l-1,.9-.49.6.59-.49.91-1s.09.1.14.15c-.03.02-.04.05-.04.09,0,.06.05.11.11.11.03,0,.05,0,.07-.02.04.06.08.11.11.17l-1.2.61-.63.45.7-.32,1.13-.74c.04.06.07.13.1.19-.04.02-.07.06-.07.11,0,.06.05.11.11.11.02,0,.03,0,.04-.01.02.06.04.13.06.19l-1.32.28-.72.27.76-.13,1.29-.41c.02.06.03.13.04.19-.06,0-.1.05-.1.11s.05.11.11.11h.01c0,.06,0,.14,0,.2l-1.35-.06-.77.07.77.08,1.35-.07c0,.07,0,.14,0,.2h-.01c-.06,0-.11.05-.11.11s.04.1.09.11c-.01.07-.03.13-.04.2l-.46-.15-.83-.27-.76-.13h0,0l.72.27,1.32.28c-.02.06-.04.13-.06.19,0,0-.01,0-.01,0h-.02c-.06,0-.11.05-.11.11,0,.02,0,.03.01.04h0s.02.03.03.04h0s0,0,0,0h0s0,0,.01,0h0s0,0,0,0c-.03.06-.06.12-.09.18l-1.13-.73h0l-.7-.32h0l.37.26.26.19h0l1.2.61c-.04.06-.07.12-.11.18-.02-.01-.04-.02-.06-.02-.06,0-.11.05-.11.11,0,.04.01.07.04.09-.04.05-.09.1-.14.15l-.91-1-.59-.49.49.6,1,.9s-.09.09-.14.13c-.02-.02-.04-.03-.07-.03-.06,0-.11.05-.11.11,0,.02,0,.04,0,.05-.06.04-.12.08-.18.11l-.62-1.2-.45-.64h0l.32.7.73,1.14c-.06.03-.12.06-.18.09-.02-.04-.06-.07-.1-.07-.06,0-.11.05-.11.11,0,.01,0,.03,0,.04-.06.02-.13.04-.19.06l-.29-1.32-.27-.72h0s.13.76.13.76l.41,1.29c-.07.02-.13.04-.2.04,0-.05-.06-.09-.11-.09-.06,0-.11.05-.11.11h0c-.07.02-.14.02-.2.02l.07-1.35-.07-.77-.07.77.07,1.35c-.07,0-.14,0-.21-.01h0c0-.07-.05-.12-.11-.12-.05,0-.1.04-.11.09-.07-.01-.13-.02-.19-.04l.41-1.29.13-.76-.27.72-.28,1.32c-.06-.01-.13-.04-.19-.06,0-.01,0-.03,0-.04,0-.06-.05-.11-.11-.11-.05,0-.09.03-.11.07-.06-.03-.12-.06-.18-.09l.73-1.14.32-.7-.45.63-.61,1.2c-.06-.04-.12-.08-.17-.11.01-.01.02-.04.02-.06,0-.06-.05-.11-.11-.11-.04,0-.07.02-.09.04-.05-.05-.1-.09-.15-.14l1-.9.49-.6h0l-.59.49-.91,1s-.09-.1-.14-.15c.02-.02.04-.05.04-.09,0-.06-.05-.11-.11-.11-.03,0-.05,0-.07.02-.04-.05-.08-.11-.11-.17l1.2-.62.63-.44-.7.32-1.13.73c-.03-.06-.06-.11-.09-.18.04-.01.07-.05.07-.1,0-.06-.05-.11-.11-.11-.02,0-.03,0-.05.01-.02-.06-.04-.13-.06-.2l1.32-.28.73-.27-.76.13-1.29.41c-.02-.06-.03-.13-.04-.2.06,0,.1-.05.1-.11,0-.06-.05-.11-.11-.11h-.01c0-.06,0-.13,0-.2l1.35.07.77-.08-.77-.07-1.35.06c0-.06,0-.14,0-.2h.02c.06,0,.11-.05.11-.11,0-.06-.04-.1-.1-.11.01-.06.03-.14.04-.19l1.29.41.76.13-.73-.27-1.32-.28c.02-.07.04-.13.06-.19.01,0,.03,0,.04,0,.06,0,.11-.05.11-.11,0-.05-.03-.09-.07-.1.03-.06.06-.13.09-.19l1.13.74.71.32-.63-.45-1.2-.61c.03-.06.07-.11.11-.18.02.02.04.03.07.03.06,0,.11-.05.11-.11,0-.03-.02-.06-.04-.09.04-.05.09-.1.13-.15l.91,1,.6.49-.49-.6-1-.9c.05-.05.1-.09.15-.14.02.03.05.04.09.04.06,0,.11-.05.11-.11,0-.03-.01-.05-.02-.07.06-.03.11-.07.17-.1l.61,1.2.45.63-.32-.7-.73-1.13c.06-.04.12-.07.18-.1.02.04.06.07.1.07.06,0,.11-.05.11-.11,0-.02,0-.04,0-.05.06-.03.13-.04.19-.06l.29,1.32.27.73-.13-.76-.41-1.29c.06-.02.13-.03.2-.05,0,.05.05.1.11.1.06,0,.11-.05.11-.11h0c.07-.02.13-.02.2-.02"/>
          <path class="cls-5" d="m15.35,8.56c.22,0,.4.18.4.4s-.18.4-.4.4-.4-.18-.4-.4.18-.4.4-.4"/>
          <path class="cls-1" d="m15.35,8.65c.17,0,.31.14.31.31s-.14.31-.31.31-.31-.14-.31-.31.14-.31.31-.31"/>
        </g>
      </g>
    </g>
  </g>
</svg>