<?xml version="1.0" encoding="UTF-8"?>
<svg id="Layer_2" data-name="Layer 2" xmlns="http://www.w3.org/2000/svg" viewBox="0 0 375 752.82">
  <defs>
    <style>
      .cls-1, .cls-2, .cls-3 {
        stroke-width: 0px;
      }

      .cls-2 {
        fill: none;
      }

      .cls-3 {
        fill: #fff;
      }

      .cls-4 {
        fill: #212121;
        font-family: Lato-Regular, Lato;
        font-size: 22.96px;
      }
    </style>
  </defs>
  <g id="Layer_1-2" data-name="Layer 1">
    <g>
      <rect class="cls-2" x="0" width="375" height="752.82"/>
      <g>
        <text class="cls-4" transform="translate(109.34 428.07)"><tspan x="0" y="0">No result found</tspan></text>
        <g>
          <path class="cls-1" d="m233.11,338.58c1.43.3,2.52,1.12,3.2,2.55,1.53,3.26-.56,7.08-3.88,7.1-4.18.01-8.36,0-12.55,0-1.78,0-3.55.01-5.33,0-2.74-.03-4.92-2.51-4.9-5.56.02-3.53,2.88-6.09,5.99-5.37.05.01.1.02.14.03.09-.64.12-1.3.27-1.91.7-2.75,2.32-4.51,4.83-5.03,2.5-.52,4.55.46,6.1,2.72.12.18.2.26.43.18,3.11-1.09,5.95,1.49,5.68,5.14,0,.04,0,.08,0,.17Zm-5.25-3.99c.12.85.25,1.64.33,2.43.05.5-.23.82-.61.82-.36,0-.6-.3-.62-.78-.01-.24-.03-.49-.06-.73-.38-2.89-2.71-4.96-5.3-4.7-2.61.25-4.59,2.75-4.53,5.67,0,.42.07.76.45.95.14.07.25.2.36.32.96.97,1.5,2.17,1.63,3.61.04.43-.19.76-.54.81-.34.06-.62-.21-.69-.64-.02-.11-.03-.23-.05-.34-.36-2.51-2.66-4.08-4.81-3.27-1.68.63-2.77,2.56-2.51,4.45.28,2.09,1.76,3.6,3.6,3.63,1.58.02,3.17,0,4.75,0,4.4,0,8.8,0,13.2,0,2.1,0,3.58-2.19,3-4.41-.66-2.53-3.44-3.34-5.14-1.49-.39.42-.72.48-1,.17-.3-.32-.26-.72.13-1.16.48-.54,1.04-.93,1.69-1.16.75-.27.8-.36.72-1.27-.01-.14-.04-.28-.07-.43-.38-2.01-2.43-3.28-3.96-2.5Z"/>
          <path class="cls-3" d="m227.85,334.6c.12.85.25,1.64.33,2.43.05.5-.23.82-.61.82-.36,0-.6-.3-.62-.78-.01-.24-.03-.49-.06-.73-.38-2.89-2.71-4.96-5.3-4.7-2.61.25-4.59,2.75-4.53,5.67,0,.42.07.76.45.95.14.07.25.2.36.32.96.97,1.5,2.17,1.63,3.61.04.43-.19.76-.54.81-.34.06-.62-.21-.69-.64-.02-.11-.03-.23-.05-.34-.36-2.51-2.66-4.08-4.81-3.27-1.68.63-2.77,2.56-2.51,4.45.28,2.09,1.76,3.6,3.6,3.63,1.58.02,3.17,0,4.75,0,4.4,0,8.8,0,13.2,0,2.1,0,3.58-2.19,3-4.41-.66-2.53-3.44-3.34-5.14-1.49-.39.42-.72.48-1,.17-.3-.32-.26-.72.13-1.16.48-.54,1.04-.93,1.69-1.16.75-.27.8-.36.72-1.27-.01-.14-.04-.28-.07-.43-.38-2.01-2.43-3.28-3.96-2.5Z"/>
        </g>
        <path class="cls-1" d="m233.14,384.96l-19.74-19.7c9.43-10.58,9-26.77-1.06-36.84-10.5-10.5-27.48-10.5-37.98,0-10.5,10.5-10.5,27.48,0,37.98,10.07,10.06,26.26,10.5,36.84,1.06l19.7,19.74c1.49,1.45,3.7-.75,2.24-2.24Z"/>
        <path class="cls-3" d="m193.36,372.1c-13.63,0-24.68-11.05-24.68-24.68s11.05-24.68,24.68-24.68,24.68,11.05,24.68,24.68-11.05,24.68-24.68,24.68Z"/>
        <g>
          <path class="cls-1" d="m174.24,354.36c2.2.41,3.88,1.53,4.91,3.5,2.36,4.47-.86,9.72-5.97,9.74-6.43.02-12.86,0-19.29,0-2.73,0-5.46.02-8.19,0-4.22-.04-7.56-3.44-7.53-7.64.03-4.84,4.43-8.36,9.2-7.38.08.02.15.03.21.04.14-.88.18-1.78.42-2.62,1.08-3.78,3.57-6.19,7.43-6.9,3.84-.71,6.99.63,9.38,3.73.19.24.31.36.66.25,4.78-1.49,9.15,2.04,8.74,7.05,0,.06,0,.12.01.23Zm-8.07-5.47c.18,1.16.38,2.24.5,3.34.07.68-.36,1.12-.93,1.12-.56,0-.92-.41-.95-1.06-.02-.33-.04-.67-.09-1-.59-3.97-4.17-6.8-8.14-6.46-4.01.35-7.06,3.77-6.96,7.79.01.57.11,1.04.7,1.31.21.09.38.28.56.44,1.48,1.33,2.31,2.98,2.51,4.96.06.58-.29,1.04-.82,1.12-.52.08-.96-.28-1.06-.88-.03-.16-.05-.31-.07-.47-.55-3.45-4.09-5.6-7.4-4.49-2.58.86-4.25,3.52-3.86,6.11.43,2.87,2.71,4.94,5.54,4.98,2.43.03,4.87,0,7.3,0,6.76,0,13.53,0,20.29,0,3.23,0,5.5-3.01,4.62-6.05-1.01-3.48-5.29-4.59-7.9-2.05-.59.58-1.1.66-1.54.24-.46-.44-.4-.99.21-1.59.74-.74,1.6-1.28,2.6-1.6,1.15-.37,1.23-.5,1.1-1.74-.02-.2-.06-.39-.1-.58-.59-2.76-3.73-4.5-6.09-3.44Z"/>
          <path class="cls-3" d="m166.15,348.89c.18,1.16.38,2.24.5,3.34.07.68-.36,1.12-.93,1.12-.56,0-.92-.41-.95-1.06-.02-.33-.04-.67-.09-1-.59-3.97-4.17-6.8-8.14-6.46-4.01.35-7.06,3.77-6.96,7.79.01.57.11,1.04.7,1.31.21.09.38.28.56.44,1.48,1.33,2.31,2.98,2.51,4.96.06.58-.29,1.04-.82,1.12-.52.08-.96-.28-1.06-.88-.03-.16-.05-.31-.07-.47-.55-3.45-4.09-5.6-7.4-4.49-2.58.86-4.25,3.52-3.86,6.11.43,2.87,2.71,4.94,5.54,4.98,2.43.03,4.87,0,7.3,0,6.76,0,13.53,0,20.29,0,3.23,0,5.5-3.01,4.62-6.05-1.01-3.48-5.29-4.59-7.9-2.05-.59.58-1.1.66-1.54.24-.46-.44-.4-.99.21-1.59.74-.74,1.6-1.28,2.6-1.6,1.15-.37,1.23-.5,1.1-1.74-.02-.2-.06-.39-.1-.58-.59-2.76-3.73-4.5-6.09-3.44Z"/>
        </g>
        <g>
          <path class="cls-1" d="m197.16,347.09c-.26,0-.47.21-.47.47s.21.47.47.47.47-.21.47-.47-.21-.47-.47-.47Z"/>
          <path class="cls-1" d="m182.48,346s0,0,0,0c0,0,0,0,0,0l11.52,12.74c.09.09.22.15.35.15s.26-.06.35-.15l11.52-12.74s0,0,0,0c0,0,0,0,0,0,.15-.17.15-.42.02-.6,0,0,0,0,0,0l-3.75-4.68c-.09-.11-.22-.18-.37-.18h-15.55c-.14,0-.28.06-.37.18l-3.75,4.68s0,0,0,0c-.14.18-.13.43.02.6Zm9.33-4.52h5.09l2.25,3.75h-9.58l2.25-3.75Zm-2.36,4.68h9.8l-4.9,11.11-4.9-11.11Zm10.83,0h4.54l-8.86,9.8,4.32-9.8Zm-11.85,0l4.32,9.8-8.86-9.8h4.54Zm16.47-.94h-4.66l-2.25-3.75h3.91l3,3.75Zm-18.09-3.75h3.91l-2.25,3.75h-4.66l3-3.75Z"/>
          <path class="cls-1" d="m195.29,347.09h-3.48c-.26,0-.47.21-.47.47s.21.47.47.47h3.48c.26,0,.47-.21.47-.47s-.21-.47-.47-.47Z"/>
        </g>
      </g>
    </g>
  </g>
</svg>