<?xml version="1.0" encoding="UTF-8"?>
<svg id="Layer_2" data-name="Layer 2" xmlns="http://www.w3.org/2000/svg" viewBox="0 0 15.43 14.55">
  <defs>
    <style>
      .cls-1 {
        fill: #4c0c4b;
        fill-rule: evenodd;
        stroke: #4c0c4b;
        stroke-miterlimit: 10;
        stroke-width: .09px;
      }
    </style>
  </defs>
  <g id="Layer_1-2" data-name="Layer 1">
    <path class="cls-1" d="m9.26,13.54c0-.53-.43-.96-.96-.96h-1.18c-.25,0-.5.1-.68.28s-.28.42-.28.68c0,.53.43.96.96.96h1.18c.53,0,.96-.43.96-.96h0Zm-7.2-2.48c.16.01.35.02.55,0,.1.53.36,1.01.75,1.4.51.51,1.2.8,1.93.8h.37c-.02.09-.02.18-.02.27s0,.18.02.27h-.37c-.87,0-1.7-.34-2.31-.96-.49-.49-.81-1.12-.91-1.79h0Zm-.27-.57c-.43-.07-.82-.27-1.13-.58-.39-.39-.61-.92-.61-1.48v-1.27c0-.55.22-1.09.61-1.48.39-.39.92-.61,1.48-.61h.14C2.5,2.25,4.85.04,7.71.04s5.22,2.21,5.44,5.02h.14c.55,0,1.09.22,1.48.61s.61.92.61,1.48v1.27c0,.55-.22,1.09-.61,1.48-.39.39-.92.61-1.48.61h-.62c-.26,0-.46-.21-.46-.46v-4.56c0-2.48-2.01-4.5-4.5-4.5S3.22,3.02,3.22,5.5v4.56c0,.18-.1.34-.25.41-.42.14-1.06.04-1.17.02h0Z"/>
  </g>
</svg>